# xmcd
#
# Track frame offsets:
#	150
#	12343
#	25662
#	36877
#	48844
#	61297
#	71697
#	82689
#	95072
#	108854
#	120102
#	133127
#
# Disc length: 1921 seconds
# Revision: 0
# Processed by: cddbd v1.5.2PL0 Copyright (c) Steve Scherf et al.
# Submitted via: dBpowerAMP V12.0
#
DISCID=8e077f0c
DTITLE=Hank Williams - Original American Classics, Vol. 3
DYEAR=1993
DGENRE=Country
TTITLE0=Take These Chains from My Heart
TTITLE1=Hey Good Lookin'
TTITLE2=I Heard That Lonesome Whistle
TTITLE3=You Win Again
TTITLE4=Howlin' At the Moon
TTITLE5=Please Don't Let Me Love You
TTITLE6=Why Don't You Love Me
TTITLE7=Never Again Will I Knock On Your Door
TTITLE8=I'd Still Want You
TTITLE9=Crazy Heart
TTITLE10=Pan American
TTITLE11=I'll Never Get Out of This World Alive
EXTD=
EXTT0=
EXTT1=
EXTT2=
EXTT3=
EXTT4=
EXTT5=
EXTT6=
EXTT7=
EXTT8=
EXTT9=
EXTT10=
EXTT11=
PLAYORDER=
